<?xml version="1.0" standalone="no"?>
<!DOCTYPE svg PUBLIC "-//W3C//DTD SVG 20010904//EN"
 "http://www.w3.org/TR/2001/REC-SVG-20010904/DTD/svg10.dtd">
<svg version="1.0" xmlns="http://www.w3.org/2000/svg"
 width="512.000000pt" height="512.000000pt" viewBox="0 0 512.000000 512.000000"
 preserveAspectRatio="xMidYMid meet">
<metadata>
Created by potrace 1.14, written by Peter Selinger 2001-2017
</metadata>
<g transform="translate(0.000000,512.000000) scale(0.100000,-0.100000)"
fill="#000000" stroke="none">
<path d="M178 5108 c-52 -14 -126 -83 -154 -141 -21 -46 -23 -64 -24 -251 -1
-233 8 -287 55 -349 38 -50 121 -97 170 -97 l31 0 -1 -2047 c0 -1127 3 -2066
8 -2087 11 -54 43 -95 91 -117 40 -18 116 -19 2206 -19 2090 0 2166 1 2206 19
46 21 78 59 91 111 4 19 8 609 7 1320 -1 1011 1 1289 11 1305 7 11 55 63 107
116 114 115 132 149 132 244 0 94 -19 126 -146 254 l-103 104 -1 398 -1 399
31 0 c78 1 182 83 210 167 13 37 15 88 13 272 l-2 226 -28 50 c-28 51 -86 100
-142 122 -39 15 -4710 16 -4767 1z"/>
</g>
</svg>
